<svg width="400" height="400" viewBox="0 0 400 400" fill="none" xmlns="http://www.w3.org/2000/svg">
<g clip-path="url(#clip0_15_20)">
<path d="M210.045 32.5912C253.499 -10.8637 323.954 -10.8637 367.409 32.5912C410.864 76.0461 410.864 146.501 367.409 189.955L189.955 367.409C146.501 410.864 76.0461 410.864 32.5912 367.409C-10.8637 323.954 -10.8637 253.499 32.5912 210.045L210.045 32.5912Z" fill="#D946EF"/>
<path d="M32.5912 189.955C-10.8637 146.501 -10.8637 76.0461 32.5912 32.5912C76.0461 -10.8637 146.501 -10.8637 189.955 32.5912L367.409 210.045C410.864 253.499 410.864 323.954 367.409 367.409C323.954 410.864 253.499 410.864 210.045 367.409L32.5912 189.955Z" fill="#D946EF"/>
<path d="M245.297 109.023C257.961 96.3588 278.494 96.3588 291.159 109.023C303.823 121.687 303.823 142.22 291.159 154.885L154.884 291.159C142.22 303.823 121.687 303.823 109.023 291.159C96.3586 278.494 96.3586 257.962 109.023 245.297L245.297 109.023Z" fill="white"/>
<circle cx="135.078" cy="135.078" r="35.2086" fill="white"/>
<circle cx="265.791" cy="265.791" r="35.2086" fill="white"/>
</g>
<defs>
<clipPath id="clip0_15_20">
<rect width="400" height="400" fill="white"/>
</clipPath>
</defs>
</svg>
