<svg width="200" height="200" viewBox="0 0 200 200" fill="none" xmlns="http://www.w3.org/2000/svg">
<rect width="200" height="200" fill="white"/>
<circle cx="100" cy="100" r="90" fill="#FAE8FF"/>
<path fill-rule="evenodd" clip-rule="evenodd" d="M48.0317 102.25C48.5472 94.1556 55.2755 87.75 63.5 87.75H85V94.75H95.5C96.6046 94.75 97.5 95.6454 97.5 96.75C97.5 97.8546 96.6046 98.75 95.5 98.75H85V107.75H95.5C96.6046 107.75 97.5 108.645 97.5 109.75C97.5 110.855 96.6046 111.75 95.5 111.75H85V118.75H63.5C55.9659 118.75 49.6873 113.375 48.2901 106.25H37.5C31.4249 106.25 26.5 111.175 26.5 117.25C26.5 123.325 31.4249 128.25 37.5 128.25H61.75C67.4109 128.25 72 132.839 72 138.5C72 144.161 67.4109 148.75 61.75 148.75H6.5C5.39543 148.75 4.5 147.855 4.5 146.75C4.5 145.645 5.39543 144.75 6.5 144.75H61.75C65.2018 144.75 68 141.952 68 138.5C68 135.048 65.2018 132.25 61.75 132.25H37.5C29.2157 132.25 22.5 125.534 22.5 117.25C22.5 108.966 29.2157 102.25 37.5 102.25H48.0317ZM81 91.75H63.5C57.1487 91.75 52 96.8987 52 103.25C52 109.601 57.1487 114.75 63.5 114.75H81V91.75ZM111 91.75V114.75L128.5 114.75C134.851 114.75 140 109.601 140 103.25C140 96.8987 134.851 91.75 128.5 91.75L111 91.75ZM128.5 87.75C136.554 87.75 143.174 93.8934 143.928 101.75H152C160.284 101.75 167 108.466 167 116.75C167 122.825 171.925 127.75 178 127.75H195C196.105 127.75 197 128.645 197 129.75C197 130.855 196.105 131.75 195 131.75H178C169.716 131.75 163 125.034 163 116.75C163 110.675 158.075 105.75 152 105.75H143.799C142.604 113.122 136.209 118.75 128.5 118.75L107 118.75V87.75L128.5 87.75Z" fill="#D946EF"/>
<path d="M100 82.75L97.402 52L102.598 52L100 82.75Z" fill="#D946EF"/>
<path d="M105.912 81.4133L120.454 61.828L125.497 66.8711L105.912 81.4133Z" fill="#D946EF"/>
<path d="M92.6634 81.4133L73.078 66.8711L78.1211 61.828L92.6634 81.4133Z" fill="#D946EF"/>
</svg>
