<svg width="400" height="300" viewBox="0 0 400 300" fill="none" xmlns="http://www.w3.org/2000/svg">
<g clip-path="url(#clip0_1_2)">
<rect width="400" height="300" fill="white"/>
<circle cx="200" cy="150" r="89.5" fill="#F5F5F5" stroke="#D0D0D0"/>
<circle cx="200" cy="150" r="149.5" stroke="#E0E0E0"/>
<circle cx="200" cy="150" r="209.5" stroke="#E0E0E0"/>
<circle cx="201" cy="151" r="29.5" stroke="#D0D0D0"/>
<path d="M216 151C216 159.284 209.284 166 201 166C192.716 166 186 159.284 186 151C186 142.716 192.716 136 201 136C209.284 136 216 142.716 216 151Z" fill="#FF7272"/>
<path d="M206 145C206 147.761 203.761 150 201 150C198.239 150 196 147.761 196 145C196 142.239 198.239 140 201 140C203.761 140 206 142.239 206 145Z" fill="white"/>
<path d="M191.806 158.713C190.924 157.662 191.176 156.105 192.344 155.386C194.75 153.905 197.967 153 201.5 153C204.629 153 207.51 153.71 209.799 154.901C211.046 155.55 211.416 157.125 210.567 158.244C208.376 161.134 204.906 163 201 163C197.309 163 194.008 161.334 191.806 158.713Z" fill="white"/>
<path d="M324 40C324 51.0457 315.046 60 304 60C292.954 60 284 51.0457 284 40C284 28.9543 292.954 20 304 20C315.046 20 324 28.9543 324 40Z" fill="#22C55E"/>
<path d="M310.667 32C310.667 35.6819 307.682 38.6667 304 38.6667C300.318 38.6667 297.333 35.6819 297.333 32C297.333 28.3181 300.318 25.3333 304 25.3333C307.682 25.3333 310.667 28.3181 310.667 32Z" fill="white"/>
<path d="M291.742 50.2835C290.565 48.8825 290.901 46.8072 292.459 45.8482C295.667 43.8733 299.956 42.6667 304.667 42.6667C308.839 42.6667 312.68 43.6131 315.732 45.2015C317.394 46.066 317.888 48.1667 316.757 49.6591C313.835 53.5117 309.208 56 304 56C299.079 56 294.677 53.7784 291.742 50.2835Z" fill="white"/>
<path d="M306 265.5C306 272.956 299.956 279 292.5 279C285.044 279 279 272.956 279 265.5C279 258.044 285.044 252 292.5 252C299.956 252 306 258.044 306 265.5Z" fill="#F59E0B"/>
<path d="M297 260.1C297 262.585 294.985 264.6 292.5 264.6C290.015 264.6 288 262.585 288 260.1C288 257.615 290.015 255.6 292.5 255.6C294.985 255.6 297 257.615 297 260.1Z" fill="white"/>
<path d="M284.226 272.441C283.432 271.496 283.658 270.095 284.71 269.448C286.875 268.114 289.77 267.3 292.95 267.3C295.766 267.3 298.359 267.939 300.419 269.011C301.541 269.595 301.875 271.013 301.111 272.02C299.139 274.62 296.015 276.3 292.5 276.3C289.178 276.3 286.207 274.8 284.226 272.441Z" fill="white"/>
<path d="M78 101C78 112.046 69.0457 121 58 121C46.9543 121 38 112.046 38 101C38 89.9543 46.9543 81 58 81C69.0457 81 78 89.9543 78 101Z" fill="#3B82F6"/>
<path d="M64.6667 93C64.6667 96.6819 61.6819 99.6667 58 99.6667C54.3181 99.6667 51.3333 96.6819 51.3333 93C51.3333 89.3181 54.3181 86.3333 58 86.3333C61.6819 86.3333 64.6667 89.3181 64.6667 93Z" fill="white"/>
<path d="M45.7419 111.284C44.5653 109.883 44.9009 107.807 46.4589 106.848C49.6672 104.873 53.9556 103.667 58.6667 103.667C62.839 103.667 66.6798 104.613 69.7324 106.201C71.394 107.066 71.8884 109.167 70.7565 110.659C67.8349 114.512 63.208 117 58 117C53.079 117 48.6769 114.778 45.7419 111.284Z" fill="white"/>
</g>
<defs>
<clipPath id="clip0_1_2">
<rect width="400" height="300" fill="white"/>
</clipPath>
</defs>
</svg>
