<svg width="400" height="300" viewBox="0 0 400 300" fill="none" xmlns="http://www.w3.org/2000/svg">
<rect width="400" height="300" fill="white"/>
<path d="M29 268.5C37.5 237.5 82 112 178.5 149.5C255.7 179.5 338.333 89.6667 370 41" stroke="#8B5CF6" stroke-width="2"/>
<path d="M178.5 149.5C82 112 37.5 237.5 29 268.5H365.5L370 41C338.333 89.6667 255.7 179.5 178.5 149.5Z" fill="url(#paint0_linear_7_88)"/>
<circle cx="343.5" cy="75.5" r="10.5" fill="white"/>
<circle cx="343.5" cy="75.5" r="6" fill="white" stroke="#8B5CF6" stroke-width="3"/>
<circle cx="57.5" cy="201.5" r="10.5" fill="white"/>
<circle cx="57.5" cy="201.5" r="6" fill="white" stroke="#8B5CF6" stroke-width="3"/>
<circle cx="226" cy="78" r="25.5" stroke="#DCFCE7"/>
<circle cx="226" cy="78" r="41.5" stroke="#DCFCE7"/>
<circle cx="226" cy="78" r="16" fill="#DCFCE7"/>
<path d="M225.065 86.8182V68.6364H226.23V86.8182H225.065ZM228.155 74.6378C228.098 74.0649 227.854 73.6198 227.423 73.3026C226.992 72.9853 226.408 72.8267 225.669 72.8267C225.167 72.8267 224.743 72.8977 224.398 73.0398C224.052 73.1771 223.787 73.3688 223.602 73.6151C223.422 73.8613 223.332 74.1406 223.332 74.4531C223.323 74.7135 223.377 74.9408 223.496 75.1349C223.619 75.3291 223.787 75.4972 224 75.6392C224.213 75.7765 224.459 75.8973 224.739 76.0014C225.018 76.1009 225.316 76.1861 225.634 76.2571L226.94 76.5696C227.575 76.7116 228.157 76.901 228.688 77.1378C229.218 77.3745 229.677 77.6657 230.065 78.0114C230.454 78.357 230.754 78.7642 230.967 79.233C231.185 79.7017 231.296 80.2391 231.301 80.8452C231.296 81.7353 231.069 82.5071 230.619 83.1605C230.174 83.8092 229.53 84.3134 228.688 84.6733C227.849 85.0284 226.839 85.206 225.655 85.206C224.481 85.206 223.458 85.026 222.587 84.6662C221.72 84.3063 221.043 83.7737 220.555 83.0682C220.072 82.358 219.819 81.4796 219.795 80.4332H222.771C222.804 80.9209 222.944 81.3281 223.19 81.6548C223.441 81.9768 223.775 82.2206 224.192 82.3864C224.613 82.5473 225.089 82.6278 225.619 82.6278C226.14 82.6278 226.592 82.5521 226.976 82.4006C227.364 82.2491 227.665 82.0384 227.878 81.7685C228.091 81.4986 228.197 81.1884 228.197 80.8381C228.197 80.5114 228.1 80.2367 227.906 80.0142C227.717 79.7917 227.438 79.6023 227.068 79.446C226.704 79.2898 226.256 79.1477 225.726 79.0199L224.142 78.6222C222.916 78.3239 221.947 77.8575 221.237 77.223C220.527 76.5885 220.174 75.7339 220.179 74.6591C220.174 73.7784 220.409 73.009 220.882 72.3509C221.36 71.6927 222.016 71.179 222.849 70.8097C223.683 70.4403 224.63 70.2557 225.69 70.2557C226.77 70.2557 227.712 70.4403 228.517 70.8097C229.327 71.179 229.956 71.6927 230.406 72.3509C230.856 73.009 231.088 73.7713 231.102 74.6378H228.155Z" fill="#22C55E"/>
<path fill-rule="evenodd" clip-rule="evenodd" d="M137 99.0214L117.007 79.2371L97.0148 99.0214H107.773V126H125.728V99.0214H137Z" fill="url(#paint1_linear_7_88)"/>
<path fill-rule="evenodd" clip-rule="evenodd" d="M96.9852 99.0214L76.9926 79.2371L57 99.0214H67.7585V126H85.7138V99.0214H96.9852Z" fill="url(#paint2_linear_7_88)"/>
<path fill-rule="evenodd" clip-rule="evenodd" d="M116.993 61.7843L97 42L77.0074 61.7843H87.7659V88.7629H105.721V61.7843H116.993Z" fill="url(#paint3_linear_7_88)"/>
<defs>
<linearGradient id="paint0_linear_7_88" x1="177.5" y1="119.5" x2="229" y2="260.5" gradientUnits="userSpaceOnUse">
<stop stop-color="#8B5CF6" stop-opacity="0.05"/>
<stop offset="1" stop-color="#8B5CF6" stop-opacity="0.16"/>
</linearGradient>
<linearGradient id="paint1_linear_7_88" x1="117.007" y1="79.2371" x2="117.007" y2="137.99" gradientUnits="userSpaceOnUse">
<stop stop-color="#86EFAC"/>
<stop offset="1" stop-color="#DCFCE7" stop-opacity="0"/>
</linearGradient>
<linearGradient id="paint2_linear_7_88" x1="76.9926" y1="79.2371" x2="76.9926" y2="137.99" gradientUnits="userSpaceOnUse">
<stop stop-color="#86EFAC"/>
<stop offset="1" stop-color="#DCFCE7" stop-opacity="0"/>
</linearGradient>
<linearGradient id="paint3_linear_7_88" x1="97" y1="42" x2="97" y2="100.753" gradientUnits="userSpaceOnUse">
<stop stop-color="#86EFAC"/>
<stop offset="1" stop-color="#DCFCE7" stop-opacity="0"/>
</linearGradient>
</defs>
</svg>
