<svg width="400" height="300" viewBox="0 0 400 300" fill="none" xmlns="http://www.w3.org/2000/svg">
<rect width="400" height="300" fill="white"/>
<path d="M112.171 175.854V208.154C112.171 228.588 128.736 245.154 149.171 245.154H277.251" stroke="#B1B1B1" stroke-width="2" stroke-dasharray="5 5"/>
<rect x="41.6805" y="50.1488" width="155.629" height="126.332" rx="21.5" fill="#F6F6F6" stroke="#DFDFDF"/>
<rect x="31.539" y="42.261" width="175.912" height="142.107" rx="28.5" stroke="#F0F0F0"/>
<rect x="23.6512" y="35.5" width="191.688" height="155.629" rx="31.5" stroke="#F0F0F0"/>
<rect x="59.2097" y="71.0585" width="32.678" height="32.678" rx="8" fill="#D9D9D9"/>
<rect x="104.283" y="71.0585" width="65.3561" height="12.3951" rx="6.19756" fill="#D9D9D9"/>
<rect x="104.283" y="90.2146" width="65.3561" height="38.3122" rx="8" fill="url(#paint0_linear_2_19)"/>
<rect x="61.4634" y="144.302" width="117.19" height="20.2829" rx="10.1415" fill="#22C55E"/>
<rect x="210" y="241" width="13" height="9" fill="white"/>
<circle cx="215.5" cy="243.5" r="20.5" fill="#0EA5E9"/>
<mask id="path-11-outside-1_2_19" maskUnits="userSpaceOnUse" x="213" y="219.006" width="26" height="41" fill="black">
<rect fill="white" x="213" y="219.006" width="26" height="41"/>
<path fill-rule="evenodd" clip-rule="evenodd" d="M216 223.006V244L232.264 255.302C234.618 251.965 236 247.894 236 243.5C236 232.345 227.091 223.271 216 223.006Z"/>
</mask>
<path fill-rule="evenodd" clip-rule="evenodd" d="M216 223.006V244L232.264 255.302C234.618 251.965 236 247.894 236 243.5C236 232.345 227.091 223.271 216 223.006Z" fill="#F43F5E"/>
<path d="M216 244H213V245.568L214.288 246.464L216 244ZM216 223.006L216.072 220.007L213 219.933V223.006H216ZM232.264 255.302L230.552 257.766L232.998 259.466L234.716 257.031L232.264 255.302ZM219 244V223.006H213V244H219ZM233.976 252.839L217.712 241.536L214.288 246.464L230.552 257.766L233.976 252.839ZM233 243.5C233 247.255 231.821 250.725 229.812 253.573L234.716 257.031C237.414 253.205 239 248.533 239 243.5H233ZM215.928 226.005C225.395 226.232 233 233.978 233 243.5H239C239 230.712 228.787 220.311 216.072 220.007L215.928 226.005Z" fill="white" mask="url(#path-11-outside-1_2_19)"/>
<circle cx="277.815" cy="244.59" r="11.2683" fill="#6F6F6F"/>
<path d="M271.92 240.88L273.88 238.92L283.68 248.72L281.72 250.68L271.92 240.88Z" fill="white"/>
<path d="M273.88 250.68L271.92 248.72L281.72 238.92L283.68 240.88L273.88 250.68Z" fill="white"/>
<path d="M197.246 113.878H334.156" stroke="#B1B1B1" stroke-width="2" stroke-dasharray="5 5"/>
<g filter="url(#filter0_d_2_19)">
<rect x="283.449" y="100.356" width="92.4" height="24.7902" rx="12.3951" fill="white"/>
<rect x="283.949" y="100.856" width="91.4" height="23.7902" rx="11.8951" stroke="#D8D8D8"/>
</g>
<path d="M310.754 110.801H309.043C309.012 110.579 308.948 110.383 308.852 110.211C308.755 110.036 308.632 109.888 308.48 109.766C308.329 109.643 308.155 109.549 307.957 109.484C307.762 109.419 307.549 109.387 307.32 109.387C306.906 109.387 306.546 109.49 306.238 109.695C305.931 109.898 305.693 110.195 305.523 110.586C305.354 110.974 305.27 111.445 305.27 112C305.27 112.57 305.354 113.049 305.523 113.437C305.695 113.826 305.935 114.118 306.242 114.316C306.549 114.514 306.905 114.613 307.309 114.613C307.535 114.613 307.745 114.583 307.938 114.523C308.133 114.464 308.306 114.376 308.457 114.262C308.608 114.145 308.733 114.003 308.832 113.836C308.934 113.669 309.004 113.479 309.043 113.266L310.754 113.273C310.71 113.641 310.599 113.995 310.422 114.336C310.247 114.674 310.012 114.978 309.715 115.246C309.421 115.512 309.069 115.723 308.66 115.879C308.254 116.033 307.794 116.109 307.281 116.109C306.568 116.109 305.93 115.948 305.367 115.625C304.807 115.302 304.365 114.835 304.039 114.223C303.716 113.611 303.555 112.87 303.555 112C303.555 111.128 303.719 110.385 304.047 109.773C304.375 109.161 304.82 108.695 305.383 108.375C305.945 108.052 306.578 107.891 307.281 107.891C307.745 107.891 308.174 107.956 308.57 108.086C308.969 108.216 309.322 108.406 309.629 108.656C309.936 108.904 310.186 109.207 310.379 109.566C310.574 109.926 310.699 110.337 310.754 110.801ZM313.6 112.531V116H311.936V108H313.553V111.059H313.623C313.758 110.704 313.977 110.427 314.279 110.227C314.581 110.023 314.96 109.922 315.416 109.922C315.833 109.922 316.196 110.013 316.506 110.195C316.818 110.375 317.061 110.634 317.232 110.973C317.407 111.309 317.493 111.711 317.49 112.18V116H315.826V112.477C315.829 112.107 315.735 111.819 315.545 111.613C315.357 111.408 315.094 111.305 314.756 111.305C314.529 111.305 314.329 111.353 314.154 111.449C313.982 111.546 313.847 111.686 313.748 111.871C313.652 112.053 313.602 112.273 313.6 112.531ZM321.534 116.117C320.917 116.117 320.386 115.992 319.94 115.742C319.498 115.49 319.157 115.133 318.917 114.672C318.677 114.208 318.558 113.66 318.558 113.027C318.558 112.41 318.677 111.868 318.917 111.402C319.157 110.936 319.494 110.573 319.929 110.312C320.366 110.052 320.879 109.922 321.468 109.922C321.864 109.922 322.232 109.986 322.573 110.113C322.917 110.238 323.216 110.427 323.472 110.68C323.729 110.932 323.93 111.25 324.073 111.633C324.216 112.013 324.288 112.458 324.288 112.969V113.426H319.222V112.395H322.722C322.722 112.155 322.67 111.943 322.565 111.758C322.461 111.573 322.317 111.428 322.132 111.324C321.95 111.217 321.737 111.164 321.495 111.164C321.243 111.164 321.019 111.223 320.823 111.34C320.631 111.454 320.479 111.609 320.37 111.805C320.261 111.997 320.205 112.212 320.202 112.449V113.43C320.202 113.727 320.257 113.983 320.366 114.199C320.478 114.415 320.636 114.582 320.839 114.699C321.042 114.816 321.283 114.875 321.562 114.875C321.746 114.875 321.916 114.849 322.069 114.797C322.223 114.745 322.354 114.667 322.464 114.562C322.573 114.458 322.657 114.331 322.714 114.18L324.253 114.281C324.175 114.651 324.015 114.974 323.772 115.25C323.533 115.523 323.223 115.737 322.843 115.891C322.465 116.042 322.029 116.117 321.534 116.117ZM328.085 116.117C327.47 116.117 326.942 115.987 326.499 115.727C326.059 115.464 325.72 115.099 325.483 114.633C325.249 114.167 325.132 113.63 325.132 113.023C325.132 112.409 325.25 111.87 325.487 111.406C325.727 110.94 326.067 110.577 326.507 110.316C326.947 110.053 327.47 109.922 328.077 109.922C328.601 109.922 329.059 110.017 329.452 110.207C329.845 110.397 330.157 110.664 330.386 111.008C330.615 111.352 330.741 111.755 330.765 112.219H329.194C329.15 111.919 329.033 111.678 328.843 111.496C328.655 111.311 328.409 111.219 328.104 111.219C327.847 111.219 327.621 111.289 327.429 111.43C327.239 111.568 327.09 111.77 326.983 112.035C326.877 112.301 326.823 112.622 326.823 113C326.823 113.383 326.875 113.708 326.979 113.977C327.086 114.245 327.236 114.449 327.429 114.59C327.621 114.73 327.847 114.801 328.104 114.801C328.295 114.801 328.465 114.762 328.616 114.684C328.77 114.605 328.896 114.492 328.995 114.344C329.097 114.193 329.163 114.012 329.194 113.801H330.765C330.739 114.259 330.614 114.663 330.39 115.012C330.168 115.358 329.862 115.629 329.472 115.824C329.081 116.02 328.619 116.117 328.085 116.117ZM333.338 114.273L333.342 112.277H333.584L335.506 110H337.416L334.834 113.016H334.439L333.338 114.273ZM331.83 116V108H333.494V116H331.83ZM335.58 116L333.814 113.387L334.924 112.211L337.529 116H335.58ZM340.696 116.117C340.09 116.117 339.565 115.988 339.122 115.73C338.682 115.47 338.342 115.108 338.103 114.645C337.863 114.178 337.743 113.638 337.743 113.023C337.743 112.404 337.863 111.862 338.103 111.398C338.342 110.932 338.682 110.57 339.122 110.312C339.565 110.052 340.09 109.922 340.696 109.922C341.303 109.922 341.826 110.052 342.267 110.312C342.709 110.57 343.05 110.932 343.29 111.398C343.53 111.862 343.649 112.404 343.649 113.023C343.649 113.638 343.53 114.178 343.29 114.645C343.05 115.108 342.709 115.47 342.267 115.73C341.826 115.988 341.303 116.117 340.696 116.117ZM340.704 114.828C340.98 114.828 341.211 114.75 341.396 114.594C341.58 114.435 341.72 114.219 341.813 113.945C341.91 113.672 341.958 113.361 341.958 113.012C341.958 112.663 341.91 112.352 341.813 112.078C341.72 111.805 341.58 111.589 341.396 111.43C341.211 111.271 340.98 111.191 340.704 111.191C340.425 111.191 340.191 111.271 340.001 111.43C339.813 111.589 339.672 111.805 339.575 112.078C339.481 112.352 339.435 112.663 339.435 113.012C339.435 113.361 339.481 113.672 339.575 113.945C339.672 114.219 339.813 114.435 340.001 114.594C340.191 114.75 340.425 114.828 340.704 114.828ZM348.579 113.445V110H350.243V116H348.646V114.91H348.583C348.448 115.262 348.222 115.544 347.907 115.758C347.595 115.971 347.213 116.078 346.763 116.078C346.362 116.078 346.009 115.987 345.704 115.805C345.399 115.622 345.161 115.363 344.989 115.027C344.82 114.691 344.734 114.289 344.731 113.82V110H346.396V113.523C346.398 113.878 346.493 114.158 346.681 114.363C346.868 114.569 347.119 114.672 347.435 114.672C347.635 114.672 347.823 114.626 347.997 114.535C348.172 114.441 348.312 114.303 348.419 114.121C348.528 113.939 348.582 113.714 348.579 113.445ZM354.766 110V111.25H351.152V110H354.766ZM351.973 108.562H353.637V114.156C353.637 114.31 353.66 114.43 353.707 114.516C353.754 114.599 353.819 114.658 353.902 114.691C353.988 114.725 354.087 114.742 354.199 114.742C354.277 114.742 354.355 114.736 354.434 114.723C354.512 114.707 354.572 114.695 354.613 114.687L354.875 115.926C354.792 115.952 354.674 115.982 354.523 116.016C354.372 116.052 354.189 116.074 353.973 116.082C353.572 116.098 353.22 116.044 352.918 115.922C352.618 115.799 352.385 115.609 352.219 115.352C352.052 115.094 351.97 114.768 351.973 114.375V108.562Z" fill="black"/>
<path d="M98.4794 156.722V155.511L101.516 150.727H102.56V152.403H101.942L100.028 155.433V155.489H104.342V156.722H98.4794ZM101.97 158V156.352L101.999 155.816V150.727H103.44V158H101.97ZM108.218 158.16C107.608 158.157 107.082 158.007 106.642 157.709C106.204 157.411 105.866 156.978 105.63 156.413C105.395 155.847 105.279 155.166 105.282 154.371C105.282 153.578 105.399 152.902 105.633 152.343C105.87 151.784 106.207 151.359 106.645 151.068C107.086 150.775 107.61 150.628 108.218 150.628C108.827 150.628 109.35 150.775 109.788 151.068C110.228 151.362 110.567 151.788 110.804 152.347C111.04 152.903 111.158 153.578 111.155 154.371C111.155 155.169 111.037 155.85 110.8 156.416C110.566 156.982 110.23 157.414 109.792 157.712C109.354 158.011 108.829 158.16 108.218 158.16ZM108.218 156.885C108.635 156.885 108.968 156.675 109.216 156.256C109.465 155.837 109.588 155.209 109.586 154.371C109.586 153.819 109.529 153.36 109.415 152.993C109.304 152.626 109.145 152.35 108.939 152.165C108.736 151.981 108.495 151.888 108.218 151.888C107.804 151.888 107.473 152.096 107.224 152.51C106.975 152.924 106.85 153.545 106.848 154.371C106.848 154.929 106.903 155.396 107.015 155.77C107.128 156.142 107.288 156.421 107.494 156.608C107.7 156.793 107.941 156.885 108.218 156.885ZM116.232 156.636V156.253C116.232 155.962 116.294 155.694 116.417 155.45C116.543 155.204 116.724 155.008 116.96 154.861C117.2 154.712 117.491 154.637 117.834 154.637C118.182 154.637 118.474 154.71 118.711 154.857C118.95 155.004 119.13 155.201 119.251 155.447C119.374 155.691 119.436 155.959 119.436 156.253V156.636C119.436 156.928 119.374 157.196 119.251 157.442C119.128 157.686 118.947 157.882 118.708 158.028C118.468 158.178 118.177 158.252 117.834 158.252C117.486 158.252 117.194 158.178 116.957 158.028C116.72 157.882 116.54 157.686 116.417 157.442C116.294 157.196 116.232 156.928 116.232 156.636ZM117.266 156.253V156.636C117.266 156.804 117.306 156.963 117.387 157.112C117.469 157.261 117.619 157.336 117.834 157.336C118.049 157.336 118.196 157.263 118.274 157.116C118.355 156.969 118.395 156.809 118.395 156.636V156.253C118.395 156.08 118.357 155.919 118.281 155.77C118.206 155.621 118.057 155.546 117.834 155.546C117.621 155.546 117.473 155.621 117.39 155.77C117.307 155.919 117.266 156.08 117.266 156.253ZM112.5 152.474V152.091C112.5 151.797 112.563 151.529 112.688 151.285C112.814 151.039 112.995 150.842 113.232 150.695C113.471 150.549 113.76 150.475 114.098 150.475C114.449 150.475 114.742 150.549 114.979 150.695C115.216 150.842 115.396 151.039 115.519 151.285C115.642 151.529 115.703 151.797 115.703 152.091V152.474C115.703 152.768 115.641 153.037 115.515 153.281C115.392 153.524 115.211 153.72 114.972 153.866C114.735 154.011 114.444 154.083 114.098 154.083C113.753 154.083 113.46 154.01 113.221 153.863C112.984 153.714 112.804 153.518 112.681 153.277C112.561 153.033 112.5 152.766 112.5 152.474ZM113.541 152.091V152.474C113.541 152.647 113.581 152.807 113.661 152.954C113.744 153.101 113.89 153.174 114.098 153.174C114.316 153.174 114.464 153.101 114.542 152.954C114.623 152.807 114.663 152.647 114.663 152.474V152.091C114.663 151.918 114.625 151.757 114.549 151.608C114.473 151.459 114.323 151.384 114.098 151.384C113.887 151.384 113.742 151.46 113.661 151.612C113.581 151.763 113.541 151.923 113.541 152.091ZM112.969 158L117.969 150.727H118.899L113.899 158H112.969ZM129.886 154.364C129.886 155.157 129.735 155.831 129.435 156.388C129.136 156.944 128.729 157.369 128.213 157.663C127.699 157.954 127.122 158.099 126.48 158.099C125.834 158.099 125.254 157.953 124.74 157.659C124.226 157.366 123.82 156.941 123.522 156.384C123.224 155.828 123.075 155.154 123.075 154.364C123.075 153.571 123.224 152.896 123.522 152.339C123.82 151.783 124.226 151.359 124.74 151.068C125.254 150.775 125.834 150.628 126.48 150.628C127.122 150.628 127.699 150.775 128.213 151.068C128.729 151.359 129.136 151.783 129.435 152.339C129.735 152.896 129.886 153.571 129.886 154.364ZM128.327 154.364C128.327 153.85 128.25 153.417 128.096 153.064C127.944 152.711 127.73 152.444 127.453 152.261C127.176 152.079 126.852 151.988 126.48 151.988C126.108 151.988 125.784 152.079 125.507 152.261C125.23 152.444 125.015 152.711 124.861 153.064C124.709 153.417 124.634 153.85 124.634 154.364C124.634 154.877 124.709 155.311 124.861 155.663C125.015 156.016 125.23 156.284 125.507 156.466C125.784 156.648 126.108 156.739 126.48 156.739C126.852 156.739 127.176 156.648 127.453 156.466C127.73 156.284 127.944 156.016 128.096 155.663C128.25 155.311 128.327 154.877 128.327 154.364ZM133.93 152.545V153.682H130.563V152.545H133.93ZM131.334 158V152.151C131.334 151.756 131.411 151.428 131.564 151.168C131.721 150.907 131.934 150.712 132.204 150.582C132.474 150.451 132.78 150.386 133.123 150.386C133.355 150.386 133.567 150.404 133.759 150.44C133.953 150.475 134.098 150.507 134.192 150.536L133.922 151.672C133.863 151.653 133.79 151.635 133.702 151.619C133.617 151.602 133.529 151.594 133.439 151.594C133.217 151.594 133.062 151.646 132.974 151.75C132.887 151.852 132.843 151.995 132.843 152.18V158H131.334ZM137.787 152.545V153.682H134.42V152.545H137.787ZM135.191 158V152.151C135.191 151.756 135.268 151.428 135.422 151.168C135.578 150.907 135.791 150.712 136.061 150.582C136.331 150.451 136.638 150.386 136.981 150.386C137.213 150.386 137.425 150.404 137.616 150.44C137.811 150.475 137.955 150.507 138.05 150.536L137.78 151.672C137.721 151.653 137.647 151.635 137.56 151.619C137.474 151.602 137.387 151.594 137.297 151.594C137.074 151.594 136.919 151.646 136.832 151.75C136.744 151.852 136.7 151.995 136.7 152.18V158H135.191Z" fill="white"/>
<defs>
<filter id="filter0_d_2_19" x="279.449" y="97.3561" width="100.4" height="32.7902" filterUnits="userSpaceOnUse" color-interpolation-filters="sRGB">
<feFlood flood-opacity="0" result="BackgroundImageFix"/>
<feColorMatrix in="SourceAlpha" type="matrix" values="0 0 0 0 0 0 0 0 0 0 0 0 0 0 0 0 0 0 127 0" result="hardAlpha"/>
<feOffset dy="1"/>
<feGaussianBlur stdDeviation="2"/>
<feComposite in2="hardAlpha" operator="out"/>
<feColorMatrix type="matrix" values="0 0 0 0 0 0 0 0 0 0 0 0 0 0 0 0 0 0 0.15 0"/>
<feBlend mode="normal" in2="BackgroundImageFix" result="effect1_dropShadow_2_19"/>
<feBlend mode="normal" in="SourceGraphic" in2="effect1_dropShadow_2_19" result="shape"/>
</filter>
<linearGradient id="paint0_linear_2_19" x1="136.961" y1="90.2146" x2="136.961" y2="128.527" gradientUnits="userSpaceOnUse">
<stop stop-color="#D9D9D9"/>
<stop offset="1" stop-color="#F6F6F6"/>
</linearGradient>
</defs>
</svg>
